<svg id="visual" viewBox="0 0 960 540" width="960" height="540" xmlns="http://www.w3.org/2000/svg" xmlns:xlink="http://www.w3.org/1999/xlink" version="1.1"><path d="M0 50L120 50L120 39L240 39L240 28L360 28L360 50L480 50L480 44L600 44L600 39L720 39L720 50L840 50L840 39L960 39L960 28L960 0L960 0L840 0L840 0L720 0L720 0L600 0L600 0L480 0L480 0L360 0L360 0L240 0L240 0L120 0L120 0L0 0Z" fill="#474b53"></path><path d="M0 98L120 98L120 60L240 60L240 60L360 60L360 82L480 82L480 82L600 82L600 77L720 77L720 93L840 93L840 82L960 82L960 82L960 26L960 37L840 37L840 48L720 48L720 37L600 37L600 42L480 42L480 48L360 48L360 26L240 26L240 37L120 37L120 48L0 48Z" fill="#474651"></path><path d="M0 168L120 168L120 168L240 168L240 131L360 131L360 174L480 174L480 174L600 174L600 141L720 141L720 174L840 174L840 158L960 158L960 163L960 80L960 80L840 80L840 91L720 91L720 75L600 75L600 80L480 80L480 80L360 80L360 58L240 58L240 58L120 58L120 96L0 96Z" fill="#49404c"></path><path d="M0 255L120 255L120 298L240 298L240 255L360 255L360 309L480 309L480 276L600 276L600 276L720 276L720 239L840 239L840 303L960 303L960 266L960 161L960 156L840 156L840 172L720 172L720 139L600 139L600 172L480 172L480 172L360 172L360 129L240 129L240 166L120 166L120 166L0 166Z" fill="#4c3b45"></path><path d="M0 314L120 314L120 347L240 347L240 314L360 314L360 341L480 341L480 325L600 325L600 314L720 314L720 298L840 298L840 368L960 368L960 320L960 264L960 301L840 301L840 237L720 237L720 274L600 274L600 274L480 274L480 307L360 307L360 253L240 253L240 296L120 296L120 253L0 253Z" fill="#4e363c"></path><path d="M0 347L120 347L120 395L240 395L240 379L360 379L360 422L480 422L480 406L600 406L600 347L720 347L720 363L840 363L840 433L960 433L960 352L960 318L960 366L840 366L840 296L720 296L720 312L600 312L600 323L480 323L480 339L360 339L360 312L240 312L240 345L120 345L120 312L0 312Z" fill="#4d3131"></path><path d="M0 509L120 509L120 509L240 509L240 492L360 492L360 498L480 498L480 514L600 514L600 492L720 492L720 492L840 492L840 492L960 492L960 487L960 350L960 431L840 431L840 361L720 361L720 345L600 345L600 404L480 404L480 420L360 420L360 377L240 377L240 393L120 393L120 345L0 345Z" fill="#492f25"></path><path d="M0 541L120 541L120 541L240 541L240 541L360 541L360 541L480 541L480 541L600 541L600 541L720 541L720 541L840 541L840 541L960 541L960 541L960 485L960 490L840 490L840 490L720 490L720 490L600 490L600 512L480 512L480 496L360 496L360 490L240 490L240 507L120 507L120 507L0 507Z" fill="#412e1b"></path></svg>