<svg xmlns="http://www.w3.org/2000/svg" version="1.1" xmlns:xlink="http://www.w3.org/1999/xlink" xmlns:svgjs="http://svgjs.dev/svgjs" width="1440" height="560" preserveAspectRatio="none" viewBox="0 0 1440 560"><g mask="url(&quot;#SvgjsMask1288&quot;)" fill="none"><rect width="1440" height="560" x="0" y="0" fill="rgba(0, 0, 0, 1)"></rect><path d="M581 171L955 545" stroke-width="10" stroke="url(&quot;#SvgjsLinearGradient1289&quot;)" stroke-linecap="round" class="TopLeft"></path><path d="M612 312L873 573" stroke-width="8" stroke="url(&quot;#SvgjsLinearGradient1290&quot;)" stroke-linecap="round" class="BottomRight"></path><path d="M280 197L-88 -171" stroke-width="10" stroke="url(&quot;#SvgjsLinearGradient1289&quot;)" stroke-linecap="round" class="TopLeft"></path><path d="M233 117L20 -96" stroke-width="8" stroke="url(&quot;#SvgjsLinearGradient1291&quot;)" stroke-linecap="round" class="BottomRight"></path><path d="M721 499L1015 793" stroke-width="10" stroke="url(&quot;#SvgjsLinearGradient1291&quot;)" stroke-linecap="round" class="BottomRight"></path><path d="M1210 103L930 -177" stroke-width="8" stroke="url(&quot;#SvgjsLinearGradient1292&quot;)" stroke-linecap="round" class="TopLeft"></path><path d="M879 257L555 -67" stroke-width="8" stroke="url(&quot;#SvgjsLinearGradient1289&quot;)" stroke-linecap="round" class="TopLeft"></path><path d="M1375 282L971 -122" stroke-width="8" stroke="url(&quot;#SvgjsLinearGradient1292&quot;)" stroke-linecap="round" class="TopLeft"></path><path d="M668 145L944 421" stroke-width="10" stroke="url(&quot;#SvgjsLinearGradient1291&quot;)" stroke-linecap="round" class="BottomRight"></path><path d="M921 286L564 -71" stroke-width="10" stroke="url(&quot;#SvgjsLinearGradient1292&quot;)" stroke-linecap="round" class="TopLeft"></path><path d="M654 377L287 10" stroke-width="8" stroke="url(&quot;#SvgjsLinearGradient1290&quot;)" stroke-linecap="round" class="BottomRight"></path><path d="M696 299L1026 629" stroke-width="10" stroke="url(&quot;#SvgjsLinearGradient1292&quot;)" stroke-linecap="round" class="TopLeft"></path><path d="M808 67L978 237" stroke-width="10" stroke="url(&quot;#SvgjsLinearGradient1292&quot;)" stroke-linecap="round" class="TopLeft"></path><path d="M614 164L1016 566" stroke-width="6" stroke="url(&quot;#SvgjsLinearGradient1291&quot;)" stroke-linecap="round" class="BottomRight"></path><path d="M1377 492L1631 746" stroke-width="8" stroke="url(&quot;#SvgjsLinearGradient1290&quot;)" stroke-linecap="round" class="BottomRight"></path><path d="M1376 242L1754 620" stroke-width="6" stroke="url(&quot;#SvgjsLinearGradient1290&quot;)" stroke-linecap="round" class="BottomRight"></path><path d="M545 246L795 496" stroke-width="6" stroke="url(&quot;#SvgjsLinearGradient1292&quot;)" stroke-linecap="round" class="TopLeft"></path><path d="M42 376L233 567" stroke-width="6" stroke="url(&quot;#SvgjsLinearGradient1289&quot;)" stroke-linecap="round" class="TopLeft"></path><path d="M291 75L593 377" stroke-width="6" stroke="url(&quot;#SvgjsLinearGradient1289&quot;)" stroke-linecap="round" class="TopLeft"></path><path d="M160 209L508 557" stroke-width="10" stroke="url(&quot;#SvgjsLinearGradient1291&quot;)" stroke-linecap="round" class="BottomRight"></path><path d="M94 287L-288 -95" stroke-width="8" stroke="url(&quot;#SvgjsLinearGradient1290&quot;)" stroke-linecap="round" class="BottomRight"></path><path d="M485 396L771 682" stroke-width="10" stroke="url(&quot;#SvgjsLinearGradient1290&quot;)" stroke-linecap="round" class="BottomRight"></path><path d="M992 370L1349 727" stroke-width="8" stroke="url(&quot;#SvgjsLinearGradient1289&quot;)" stroke-linecap="round" class="TopLeft"></path><path d="M1229 558L1544 873" stroke-width="10" stroke="url(&quot;#SvgjsLinearGradient1291&quot;)" stroke-linecap="round" class="BottomRight"></path><path d="M288 517L523 752" stroke-width="8" stroke="url(&quot;#SvgjsLinearGradient1291&quot;)" stroke-linecap="round" class="BottomRight"></path><path d="M904 331L718 145" stroke-width="6" stroke="url(&quot;#SvgjsLinearGradient1290&quot;)" stroke-linecap="round" class="BottomRight"></path><path d="M866 536L569 239" stroke-width="6" stroke="url(&quot;#SvgjsLinearGradient1292&quot;)" stroke-linecap="round" class="TopLeft"></path><path d="M246 440L-47 147" stroke-width="10" stroke="url(&quot;#SvgjsLinearGradient1289&quot;)" stroke-linecap="round" class="TopLeft"></path><path d="M114 67L-248 -295" stroke-width="10" stroke="url(&quot;#SvgjsLinearGradient1289&quot;)" stroke-linecap="round" class="TopLeft"></path><path d="M218 137L490 409" stroke-width="8" stroke="url(&quot;#SvgjsLinearGradient1292&quot;)" stroke-linecap="round" class="TopLeft"></path><path d="M84 70L435 421" stroke-width="6" stroke="url(&quot;#SvgjsLinearGradient1291&quot;)" stroke-linecap="round" class="BottomRight"></path><path d="M1036 513L1215 692" stroke-width="6" stroke="url(&quot;#SvgjsLinearGradient1289&quot;)" stroke-linecap="round" class="TopLeft"></path><path d="M99 133L-157 -123" stroke-width="8" stroke="url(&quot;#SvgjsLinearGradient1289&quot;)" stroke-linecap="round" class="TopLeft"></path><path d="M632 335L825 528" stroke-width="6" stroke="url(&quot;#SvgjsLinearGradient1289&quot;)" stroke-linecap="round" class="TopLeft"></path><path d="M859 257L1192 590" stroke-width="6" stroke="url(&quot;#SvgjsLinearGradient1290&quot;)" stroke-linecap="round" class="BottomRight"></path><path d="M613 68L278 -267" stroke-width="6" stroke="url(&quot;#SvgjsLinearGradient1290&quot;)" stroke-linecap="round" class="BottomRight"></path><path d="M1034 378L766 110" stroke-width="10" stroke="url(&quot;#SvgjsLinearGradient1292&quot;)" stroke-linecap="round" class="TopLeft"></path><path d="M455 539L211 295" stroke-width="8" stroke="url(&quot;#SvgjsLinearGradient1292&quot;)" stroke-linecap="round" class="TopLeft"></path><path d="M1124 429L795 100" stroke-width="6" stroke="url(&quot;#SvgjsLinearGradient1292&quot;)" stroke-linecap="round" class="TopLeft"></path></g><defs><mask id="SvgjsMask1288"><rect width="1440" height="560" fill="#ffffff"></rect></mask><linearGradient x1="100%" y1="100%" x2="0%" y2="0%" id="SvgjsLinearGradient1289"><stop stop-color="rgba(2, 18, 33, 0)" offset="0"></stop><stop stop-color="rgba(2, 18, 33, 1)" offset="1"></stop></linearGradient><linearGradient x1="0%" y1="0%" x2="100%" y2="100%" id="SvgjsLinearGradient1290"><stop stop-color="rgba(26, 11, 1, 0)" offset="0"></stop><stop stop-color="rgba(26, 11, 1, 1)" offset="1"></stop></linearGradient><linearGradient x1="0%" y1="0%" x2="100%" y2="100%" id="SvgjsLinearGradient1291"><stop stop-color="rgba(2, 18, 33, 0)" offset="0"></stop><stop stop-color="rgba(2, 18, 33, 1)" offset="1"></stop></linearGradient><linearGradient x1="100%" y1="100%" x2="0%" y2="0%" id="SvgjsLinearGradient1292"><stop stop-color="rgba(26, 11, 1, 0)" offset="0"></stop><stop stop-color="rgba(26, 11, 1, 1)" offset="1"></stop></linearGradient></defs></svg>